<svg xmlns="http://www.w3.org/2000/svg" xmlns:xlink="http://www.w3.org/1999/xlink" viewBox="0 0 50 50"><defs><style>.cls-1{fill:none;}.cls-2{clip-path:url(#clip-path);}.cls-3,.cls-4{fill:#181a1b;}.cls-4,.cls-5,.cls-6,.cls-7{fill-rule:evenodd;}.cls-5{fill:#fff;}.cls-6{fill:#47b353;}.cls-7{fill:#242938;}</style><clipPath id="clip-path" transform="translate(-0.05 0.05)"><rect class="cls-1" x="0.05" y="-0.05" width="50" height="50"/></clipPath></defs><title>bash-icon</title><g id="Background"><g class="cls-2"><path class="cls-3" d="M38.34,0H11.77A11.72,11.72,0,0,0,.05,11.66V38.23A11.72,11.72,0,0,0,11.77,50H38.34A11.72,11.72,0,0,0,50.05,38.23V11.66A11.71,11.71,0,0,0,38.34,0Z" transform="translate(-0.05 0.05)"/></g></g><g id="Bash"><path class="cls-4" d="M39,14.18,27.47,7.33a4.33,4.33,0,0,0-4.45,0L11.47,14.18a4.6,4.6,0,0,0-2.22,4v13.7a4.6,4.6,0,0,0,2.22,4L23,42.67a4.3,4.3,0,0,0,4.45,0L39,35.82a4.61,4.61,0,0,0,2.23-4V18.15A4.61,4.61,0,0,0,39,14.18Z" transform="translate(-0.05 0.05)"/><path class="cls-5" d="M23.42,42,11.88,35.12a3.8,3.8,0,0,1-1.83-3.27V18.15a3.8,3.8,0,0,1,1.83-3.27L23.42,8a3.58,3.58,0,0,1,3.65,0l11.55,6.85a3.8,3.8,0,0,1,1.77,2.64c-.38-.81-1.25-1-2.25-.45L27.21,23.82c-1.36.79-2.36,1.69-2.36,3.33V40.61c0,1,.39,1.62,1,1.8a3.05,3.05,0,0,1-.6.06A3.6,3.6,0,0,1,23.42,42ZM39,14.18,27.47,7.33a4.3,4.3,0,0,0-4.45,0L11.47,14.18a4.6,4.6,0,0,0-2.22,4v13.7a4.6,4.6,0,0,0,2.22,4L23,42.67a4.3,4.3,0,0,0,4.45,0L39,35.82a4.61,4.61,0,0,0,2.23-4V18.15A4.61,4.61,0,0,0,39,14.18Z" transform="translate(-0.05 0.05)"/><path class="cls-6" d="M36,33.18,33.12,34.9a.2.2,0,0,0-.14.19v.75c0,.09.07.13.14.08L36,34.15a.23.23,0,0,0,.09-.22v-.67C36.13,33.17,36.07,33.13,36,33.18Z" transform="translate(-0.05 0.05)"/><path class="cls-7" d="M29.87,26.85c.09-.05.17,0,.17.13v1a1.86,1.86,0,0,1,1.11-.13c.07,0,.1.12.07.23L31,29a.35.35,0,0,1-.1.18l-.06,0a.11.11,0,0,1-.08,0,1.48,1.48,0,0,0-1.07.18,1.34,1.34,0,0,0-.79,1.18c0,.45.24.59,1,.6,1.07,0,1.53.49,1.54,1.56a3.81,3.81,0,0,1-1.41,2.88l0,1a.37.37,0,0,1-.17.3l-.59.34c-.09,0-.17,0-.17-.13v-1a1.89,1.89,0,0,1-1.33.13c-.06,0-.08-.12-.06-.22l.21-.89a.37.37,0,0,1,.11-.18.07.07,0,0,1,.05,0,.09.09,0,0,1,.1,0,1.65,1.65,0,0,0,1.22-.16,1.59,1.59,0,0,0,.9-1.38c0-.5-.28-.71-.93-.71-.84,0-1.62-.17-1.64-1.4a3.56,3.56,0,0,1,1.36-2.74v-1a.33.33,0,0,1,.17-.3Z" transform="translate(-0.05 0.05)"/></g></svg>