<svg xmlns="http://www.w3.org/2000/svg" xmlns:xlink="http://www.w3.org/1999/xlink" viewBox="0 0 50 50"><defs><style>.cls-1{fill:none;}.cls-2{clip-path:url(#clip-path);}.cls-3{fill:#181a1b;}.cls-4{fill:#f63;}.cls-5{fill:#fff;}</style><clipPath id="clip-path" transform="translate(-0.05 0.05)"><rect class="cls-1" x="0.05" y="-0.05" width="50" height="50"/></clipPath></defs><title>burpsuit-icon</title><g id="Background"><g class="cls-2"><path class="cls-3" d="M38.34,0H11.77A11.72,11.72,0,0,0,.05,11.66V38.23A11.72,11.72,0,0,0,11.77,50H38.34A11.72,11.72,0,0,0,50.05,38.23V11.66A11.71,11.71,0,0,0,38.34,0Z" transform="translate(-0.05 0.05)"/></g></g><g id="Burpsuite"><rect class="cls-4" x="5.95" y="6.05" width="38" height="38" rx="8.91"/><path class="cls-4" d="M23.75,40.75H9.43v-32H23.75c0,1.13,0,2.26,0,3.39a1,1,0,0,1-.2.58q-4,4.95-8,9.88c-.09.11-.16.23-.3.42h.51c2.52,0,5,0,7.56,0,.36,0,.45.1.45.45,0,2,0,4.08,0,6.12,0,.4.12.49.5.48,1.21,0,2.42,0,3.64,0h.44c-.12.16-.18.23-.23.31-1.37,1.68-2.75,3.37-4.1,5.06a1.16,1.16,0,0,0-.23.65c0,1,0,2.05,0,3.07Z" transform="translate(-0.05 0.05)"/><path class="cls-4" d="M27.27,8.75H41.43v32H27.27c0-1.12,0-2.24,0-3.35a1.23,1.23,0,0,1,.22-.65c2.63-3.26,5.26-6.5,7.9-9.75.11-.14.2-.29.36-.52h-.56c-2.48,0-5,0-7.44,0-.37,0-.5-.09-.5-.49,0-2,0-4,0-5.95,0-.61,0-.61-.62-.61h-4l.34-.44c1.32-1.63,2.65-3.26,4-4.9a.88.88,0,0,0,.26-.48C27.3,12,27.28,10.37,27.27,8.75Z" transform="translate(-0.05 0.05)"/><path class="cls-5" d="M27.27,8.75c0,1.62,0,3.25,0,4.87a.88.88,0,0,1-.26.48c-1.32,1.64-2.65,3.27-4,4.9l-.34.44h4c.62,0,.62,0,.62.61,0,2,0,4,0,5.95,0,.4.13.49.5.49,2.48,0,5,0,7.44,0h.56c-.16.23-.25.38-.36.52-2.64,3.25-5.27,6.49-7.9,9.75a1.23,1.23,0,0,0-.22.65c0,1.11,0,2.23,0,3.35H23.75l0-1.6c0-1,0-2,0-3.07a1.16,1.16,0,0,1,.23-.65c1.35-1.69,2.73-3.38,4.1-5.06.05-.08.11-.15.23-.31h-.44c-1.22,0-2.43,0-3.64,0-.38,0-.5-.08-.5-.48,0-2,0-4.08,0-6.12,0-.35-.09-.46-.45-.45-2.52,0-5,0-7.56,0h-.51c.14-.19.21-.31.3-.42q4-4.94,8-9.88a1,1,0,0,0,.2-.58c0-1.13,0-2.26,0-3.39Z" transform="translate(-0.05 0.05)"/></g></svg>