<svg xmlns="http://www.w3.org/2000/svg" xmlns:xlink="http://www.w3.org/1999/xlink" viewBox="0 0 50 50"><defs><style>.cls-1{fill:none;}.cls-2{clip-path:url(#clip-path);}.cls-3{fill:#181a1b;}.cls-4{fill:#0277bd;}.cls-5{fill:#ebebeb;}.cls-6{fill:#fff;}</style><clipPath id="clip-path" transform="translate(-0.05 0.05)"><rect class="cls-1" x="0.05" y="-0.05" width="50" height="50"/></clipPath></defs><title>css-icon</title><g id="Background"><g class="cls-2"><path class="cls-3" d="M38.34,0H11.77A11.72,11.72,0,0,0,.05,11.66V38.23A11.72,11.72,0,0,0,11.77,50H38.34A11.72,11.72,0,0,0,50.05,38.23V11.66A11.71,11.71,0,0,0,38.34,0Z" transform="translate(-0.05 0.05)"/></g></g><g id="Css"><rect class="cls-4" x="7.95" y="7.43" width="35" height="35" rx="8.2"/><path class="cls-5" d="M15.35,21.41l.39,4.37h9.77V21.41Z" transform="translate(-0.05 0.05)"/><path class="cls-5" d="M25.51,12.58h-11l.4,4.36H25.51Z" transform="translate(-0.05 0.05)"/><path class="cls-5" d="M25.51,37.3V32.76h0l-4.86-1.31L20.32,28H15.94l.61,6.85,8.94,2.49Z" transform="translate(-0.05 0.05)"/><path class="cls-6" d="M30.88,25.78l-.51,5.67L25.5,32.76V37.3l9-2.48.07-.74,1-11.49.11-1.18.79-8.83H25.5v4.36h6.15l-.4,4.47H25.5v4.37Z" transform="translate(-0.05 0.05)"/></g></svg>