<svg xmlns="http://www.w3.org/2000/svg" xmlns:xlink="http://www.w3.org/1999/xlink" viewBox="0 0 50 50"><defs><style>.cls-1{fill:none;}.cls-2{clip-path:url(#clip-path);}.cls-3{fill:#181a1b;}.cls-4{clip-path:url(#clip-path-2);}.cls-5{fill:#eaeaea;}.cls-6{fill:#191919;}</style><clipPath id="clip-path" transform="translate(-0.05 0.05)"><rect class="cls-1" x="0.05" y="-0.05" width="50" height="50"/></clipPath><clipPath id="clip-path-2" transform="translate(-0.05 0.05)"><rect class="cls-1" x="6.5" y="6.5" width="37" height="37"/></clipPath></defs><title>express-icon</title><g id="Background"><g class="cls-2"><path class="cls-3" d="M38.34,0H11.77A11.72,11.72,0,0,0,.05,11.66V38.23A11.72,11.72,0,0,0,11.77,50H38.34A11.72,11.72,0,0,0,50.05,38.23V11.66A11.71,11.71,0,0,0,38.34,0Z" transform="translate(-0.05 0.05)"/></g></g><g id="ExpressJS"><g class="cls-4"><path class="cls-5" d="M34.83,6.5H15.17A8.67,8.67,0,0,0,6.5,15.17V34.83a8.67,8.67,0,0,0,8.67,8.67H34.83a8.67,8.67,0,0,0,8.67-8.67V15.17A8.67,8.67,0,0,0,34.83,6.5Z" transform="translate(-0.05 0.05)"/></g><path class="cls-6" d="M18.69,21.88h.4V23c.17-.22.28-.42.43-.58a2.29,2.29,0,0,1,3.79.89,3.89,3.89,0,0,1,0,2.73,2.13,2.13,0,0,1-2,1.38,4.53,4.53,0,0,1-.91-.08,1.88,1.88,0,0,1-1.26-1v2.87h-.42Zm.38,2.67c.06.39.08.72.15,1A1.74,1.74,0,0,0,20.82,27a1.83,1.83,0,0,0,2-1,3.15,3.15,0,0,0,0-2.85,1.79,1.79,0,0,0-1.86-1,1.73,1.73,0,0,0-1.6,1.25A9,9,0,0,0,19.07,24.55Z" transform="translate(-0.05 0.05)"/><path class="cls-6" d="M13,25.48a2.18,2.18,0,0,1-2.09,1.95,2.39,2.39,0,0,1-2.66-2.58A3.44,3.44,0,0,1,8.6,23a2.32,2.32,0,0,1,2.45-1.27,2.21,2.21,0,0,1,1.88,1.66,11,11,0,0,1,.19,1.25H8.71a2,2,0,0,0,2.71,2.23,1.61,1.61,0,0,0,1.07-1.15C12.58,25.47,12.73,25.41,13,25.48Zm-.39-1.2a2,2,0,0,0-2-2.12,2,2,0,0,0-1.91,2.12Z" transform="translate(-0.05 0.05)"/><path class="cls-6" d="M27.4,24.68a2.29,2.29,0,0,0,1.14,2.17,1.89,1.89,0,0,0,2.68-1.1c.1-.31.26-.32.52-.27A2.34,2.34,0,0,1,31,26.92a2.57,2.57,0,0,1-3.28-.15,3.45,3.45,0,0,1,.19-4.47,2.34,2.34,0,0,1,3.77,1.15,2.82,2.82,0,0,1,.12,1.23Zm4-.39a2.09,2.09,0,0,0-1.07-1.93,1.81,1.81,0,0,0-2,.17,2.21,2.21,0,0,0-.85,1.76Z" transform="translate(-0.05 0.05)"/><path class="cls-6" d="M32.5,25.52h.32a5.21,5.21,0,0,0,.56,1A1.7,1.7,0,0,0,35,27a2.54,2.54,0,0,0,1-.29.91.91,0,0,0-.06-1.65,12.24,12.24,0,0,0-1.38-.41,8.08,8.08,0,0,1-1.32-.49,1.27,1.27,0,0,1,0-2,3,3,0,0,1,.92-.35,2.9,2.9,0,0,1,1.46.06,1.5,1.5,0,0,1,1.11,1.62h-.38a4.71,4.71,0,0,0-.12-.54,1.27,1.27,0,0,0-1.26-.78,3.5,3.5,0,0,0-1.16.16.85.85,0,0,0-.62.86.84.84,0,0,0,.63.82c.56.18,1.14.29,1.71.44a3.6,3.6,0,0,1,.5.16,1.27,1.27,0,0,1,.88,1.13,1.29,1.29,0,0,1-.77,1.4,3,3,0,0,1-2.58,0A1.74,1.74,0,0,1,32.5,25.52Z" transform="translate(-0.05 0.05)"/><path class="cls-6" d="M41.73,23.51h-.37s0,0,0-.05c0-1.08-.92-1.36-1.82-1.29a2.16,2.16,0,0,0-.87.27A.83.83,0,0,0,38.71,24a9.82,9.82,0,0,0,1.34.38c.32.09.66.16,1,.27a1.25,1.25,0,0,1,.87,1.12,1.28,1.28,0,0,1-.73,1.39,3,3,0,0,1-2.65,0,1.75,1.75,0,0,1-1-1.62h.34a5.69,5.69,0,0,0,.48.92A1.71,1.71,0,0,0,40,27a2.37,2.37,0,0,0,1-.27.92.92,0,0,0-.06-1.67,11.69,11.69,0,0,0-1.35-.39,9.43,9.43,0,0,1-1.32-.49,1.28,1.28,0,0,1,0-2.05,2.53,2.53,0,0,1,.55-.26,3.3,3.3,0,0,1,1.79,0A1.52,1.52,0,0,1,41.73,23.51Z" transform="translate(-0.05 0.05)"/><path class="cls-6" d="M15.93,24.46l2.13,2.84a.7.7,0,0,1-.81-.29c-.45-.68-.95-1.33-1.44-2l-.17-.22L14,27c-.25.35-.25.35-.75.28l.63-.85c.43-.58.85-1.17,1.3-1.73a.34.34,0,0,0,0-.51c-.55-.69-1.08-1.39-1.61-2.09l-.14-.19a.56.56,0,0,1,.76.22l1.32,1.77.16.2,1.44-1.91c.27-.35.27-.35.79-.31Z" transform="translate(-0.05 0.05)"/><path class="cls-6" d="M24.86,23A2.15,2.15,0,0,1,27,21.89v.38a5.35,5.35,0,0,0-.59.06,2,2,0,0,0-1.51,2v3h-.42V21.89h.42Z" transform="translate(-0.05 0.05)"/></g></svg>