<svg xmlns="http://www.w3.org/2000/svg" xmlns:xlink="http://www.w3.org/1999/xlink" viewBox="0 0 50 50"><defs><style>.cls-1{fill:none;}.cls-2{clip-path:url(#clip-path);}.cls-3{fill:#181a1b;}.cls-4{fill:#fff;}</style><clipPath id="clip-path" transform="translate(-0.05 0.05)"><rect class="cls-1" x="0.05" y="-0.05" width="50" height="50"/></clipPath></defs><title>github-icon</title><g id="Background"><g class="cls-2"><path class="cls-3" d="M38.34,0H11.77A11.72,11.72,0,0,0,.05,11.66V38.23A11.72,11.72,0,0,0,11.77,50H38.34A11.72,11.72,0,0,0,50.05,38.23V11.66A11.71,11.71,0,0,0,38.34,0Z" transform="translate(-0.05 0.05)"/></g></g><g id="Github"><path class="cls-4" d="M25.33,6.55A18.75,18.75,0,0,0,19.4,43.09c.94.17,1.28-.41,1.28-.9s0-1.93,0-3.49c-5.22,1.13-6.32-2.21-6.32-2.21a5,5,0,0,0-2.08-2.75c-1.7-1.16.13-1.14.13-1.14a3.93,3.93,0,0,1,2.87,1.93,4,4,0,0,0,5.46,1.56,3.9,3.9,0,0,1,1.19-2.5c-4.17-.48-8.55-2.09-8.55-9.27a7.24,7.24,0,0,1,1.94-5,6.72,6.72,0,0,1,.18-5s1.57-.5,5.15,1.93a17.85,17.85,0,0,1,9.4,0c3.57-2.43,5.15-1.93,5.15-1.93a6.77,6.77,0,0,1,.18,5,7.23,7.23,0,0,1,1.93,5c0,7.2-4.39,8.79-8.56,9.25A4.48,4.48,0,0,1,30,37c0,2.51,0,4.53,0,5.15s.34,1.08,1.29.9A18.75,18.75,0,0,0,25.33,6.55ZM13.6,33.26c0,.09-.19.12-.32.06s-.21-.19-.17-.29a.23.23,0,0,1,.32-.05C13.57,33,13.65,33.17,13.6,33.26Zm.92.82a.29.29,0,0,1-.38-.08c-.12-.14-.15-.31-.06-.39a.29.29,0,0,1,.39.08C14.59,33.82,14.62,34,14.52,34.08Zm.64,1.05a.32.32,0,0,1-.42-.16.31.31,0,0,1,0-.44c.12-.08.3,0,.42.15S15.27,35.05,15.16,35.13Zm1.07,1.22a.35.35,0,0,1-.49-.07c-.16-.15-.21-.36-.1-.48s.32-.08.48.08S16.34,36.24,16.23,36.35Zm1.38.42a.38.38,0,0,1-.47.15c-.21-.07-.35-.24-.31-.39s.26-.21.47-.15S17.65,36.62,17.61,36.77Zm1.57.17c0,.16-.17.28-.4.29s-.4-.12-.4-.28.17-.28.4-.28S19.18,36.79,19.18,36.94Zm1.55-.06c0,.15-.13.31-.35.35s-.42-.06-.45-.2.13-.31.35-.35S20.7,36.73,20.73,36.88Z" transform="translate(-0.05 0.05)"/></g></svg>