<svg xmlns="http://www.w3.org/2000/svg" xmlns:xlink="http://www.w3.org/1999/xlink" viewBox="0 0 50 50"><defs><style>.cls-1{fill:none;}.cls-2{clip-path:url(#clip-path);}.cls-3{fill:#181a1b;}.cls-4{fill:#e14e1d;}.cls-5{fill:#fff;}.cls-6{fill:#ebebeb;}</style><clipPath id="clip-path" transform="translate(-0.05 0.05)"><rect class="cls-1" x="0.05" y="-0.05" width="50" height="50"/></clipPath></defs><title>html-icon</title><g id="Background"><g class="cls-2"><path class="cls-3" d="M38.34,0H11.77A11.72,11.72,0,0,0,.05,11.66V38.23A11.72,11.72,0,0,0,11.77,50H38.34A11.72,11.72,0,0,0,50.05,38.23V11.66A11.71,11.71,0,0,0,38.34,0Z" transform="translate(-0.05 0.05)"/></g></g><g id="Html"><rect class="cls-4" x="8.02" y="7.58" width="35" height="35" rx="8.2"/><path class="cls-5" d="M14.64,12.72l1.18,13.21H31l-.51,5.66-4.87,1.32-4.86-1.32L20.38,28H16l.62,7,9,2.48,9-2.48,1.2-13.41H19.81l-.4-4.47H36.12l.39-4.37Z" transform="translate(-0.05 0.05)"/><path class="cls-6" d="M25.58,12.72H14.64l1.18,13.21h9.76V21.56H19.81l-.4-4.47h6.17Z" transform="translate(-0.05 0.05)"/><path class="cls-6" d="M25.58,32.91h0l-4.86-1.32L20.38,28H16l.62,7,9,2.48h0Z" transform="translate(-0.05 0.05)"/></g></svg>