<svg xmlns="http://www.w3.org/2000/svg" xmlns:xlink="http://www.w3.org/1999/xlink" viewBox="0 0 50 50"><defs><style>.cls-1{fill:none;}.cls-2{clip-path:url(#clip-path);}.cls-3{fill:#181a1b;}.cls-4{fill:#f0db4f;}.cls-5{fill:#323330;}</style><clipPath id="clip-path" transform="translate(-0.05 0.05)"><rect class="cls-1" x="0.05" y="-0.05" width="50" height="50"/></clipPath></defs><title>js-icon</title><g id="Background"><g class="cls-2"><path class="cls-3" d="M38.34,0H11.77A11.72,11.72,0,0,0,.05,11.66V38.23A11.72,11.72,0,0,0,11.77,50H38.34A11.72,11.72,0,0,0,50.05,38.23V11.66A11.71,11.71,0,0,0,38.34,0Z" transform="translate(-0.05 0.05)"/></g></g><g id="Js"><rect class="cls-4" x="7.45" y="7.15" width="35" height="35" rx="8.2"/><path class="cls-5" d="M16.7,36.35l2.68-1.62c.52.91,1,1.69,2.12,1.69s1.76-.43,1.76-2.07V23.17h3.29V34.4c0,3.4-2,5-4.91,5a5.12,5.12,0,0,1-4.94-3" transform="translate(-0.05 0.05)"/><path class="cls-5" d="M28.33,36,31,34.44a3.59,3.59,0,0,0,3.24,2c1.37,0,2.24-.68,2.24-1.62,0-1.13-.9-1.53-2.4-2.19l-.82-.35c-2.38-1-4-2.28-4-5,0-2.46,1.88-4.34,4.82-4.34a4.85,4.85,0,0,1,4.67,2.63l-2.56,1.64a2.23,2.23,0,0,0-2.11-1.41,1.44,1.44,0,0,0-1.58,1.41c0,1,.61,1.39,2,2l.82.35c2.8,1.2,4.37,2.42,4.37,5.17,0,3-2.32,4.58-5.45,4.58a6.32,6.32,0,0,1-6-3.36" transform="translate(-0.05 0.05)"/></g></svg>