<svg xmlns="http://www.w3.org/2000/svg" xmlns:xlink="http://www.w3.org/1999/xlink" viewBox="0 0 50 50"><defs><style>.cls-1{fill:none;}.cls-2{clip-path:url(#clip-path);}.cls-3{fill:#181a1b;}.cls-4{clip-path:url(#clip-path-2);}.cls-5{fill:#fff;fill-rule:evenodd;}</style><clipPath id="clip-path" transform="translate(-0.05 0.05)"><rect class="cls-1" x="0.05" y="-0.05" width="50" height="50"/></clipPath><clipPath id="clip-path-2" transform="translate(-0.05 0.05)"><rect class="cls-1" x="8.74" y="8.19" width="33.75" height="33.75"/></clipPath></defs><title>mysql-icon</title><g id="Background"><g class="cls-2"><path class="cls-3" d="M38.34,0H11.77A11.72,11.72,0,0,0,.05,11.66V38.23A11.72,11.72,0,0,0,11.77,50H38.34A11.72,11.72,0,0,0,50.05,38.23V11.66A11.71,11.71,0,0,0,38.34,0Z" transform="translate(-0.05 0.05)"/></g></g><g id="MySql"><g class="cls-4"><path class="cls-5" d="M39.83,34.48a10.63,10.63,0,0,0-4.45.64c-.34.14-.9.14-.94.57.18.18.2.48.37.73A5.11,5.11,0,0,0,36,37.81l1.47,1c.89.55,1.9.87,2.77,1.41.51.32,1,.73,1.52,1.08.26.18.41.48.73.59v-.07c-.16-.2-.2-.5-.36-.73l-.69-.66a10.64,10.64,0,0,0-2.39-2.3c-.73-.51-2.34-1.19-2.64-2l0-.06A9.51,9.51,0,0,0,38,35.73c.78-.21,1.49-.16,2.29-.37l1.11-.31v-.21c-.42-.41-.71-1-1.15-1.34a30,30,0,0,0-3.79-2.81c-.71-.46-1.63-.75-2.38-1.14-.28-.14-.74-.21-.9-.43a9.88,9.88,0,0,1-.94-1.76l-1.88-4a26.67,26.67,0,0,0-1.17-2.6,23.07,23.07,0,0,0-8.89-8.53,11.07,11.07,0,0,0-2.93-.94l-1.72-.09a8.41,8.41,0,0,1-1.06-.8c-1.31-.82-4.68-2.6-5.64-.25-.62,1.48.91,2.94,1.44,3.69a11.5,11.5,0,0,1,1.17,1.71c.15.39.2.8.36,1.21a29,29,0,0,0,1.2,3.06,9.6,9.6,0,0,0,.85,1.41c.18.26.5.37.57.78A6.84,6.84,0,0,0,14,23.75a10,10,0,0,0,.67,7.67C15,32,15.86,33.24,17,32.76s.8-1.71,1.1-2.85c.07-.27,0-.45.16-.64v.06l.94,1.89a13,13,0,0,0,3,3.06c.55.41,1,1.11,1.67,1.36v-.06h0a2.58,2.58,0,0,0-.53-.46,10.24,10.24,0,0,1-1.2-1.37,30,30,0,0,1-2.57-4.15c-.36-.71-.69-1.48-1-2.19-.14-.27-.14-.69-.37-.82a8,8,0,0,0-1.1,1.55,12.6,12.6,0,0,0-.65,3.44c-.09,0-.05,0-.09.06-.73-.19-1-.94-1.26-1.58A9.85,9.85,0,0,1,14.9,24c.16-.48.85-2,.58-2.44s-.6-.68-.85-1A9.15,9.15,0,0,1,13.8,19c-.55-1.27-.82-2.69-1.42-4a12.85,12.85,0,0,0-1.15-1.75A11,11,0,0,1,10,11.54c-.12-.26-.28-.66-.09-.94a.34.34,0,0,1,.32-.29c.3-.26,1.15.07,1.44.2a11.84,11.84,0,0,1,2.28,1.14c.32.23.66.66,1.08.78h.48c.73.16,1.56.05,2.25.25A14.8,14.8,0,0,1,21,14.26a20.16,20.16,0,0,1,7.16,7.8c.28.52.39,1,.65,1.55.48,1.12,1.08,2.26,1.56,3.35A14.64,14.64,0,0,0,32,30c.34.48,1.72.73,2.34,1,.46.21,1.17.39,1.58.64.78.48,1.56,1,2.3,1.55.36.28,1.51.85,1.58,1.3ZM16.42,14.66a3.36,3.36,0,0,0-.94.11v.05h0a6.74,6.74,0,0,0,.73.94l.53,1.09.05-.05a1.28,1.28,0,0,0,.48-1.14c-.14-.16-.16-.32-.28-.48s-.43-.34-.62-.52Z" transform="translate(-0.05 0.05)"/></g></g></svg>