<svg xmlns="http://www.w3.org/2000/svg" xmlns:xlink="http://www.w3.org/1999/xlink" viewBox="0 0 50 50"><defs><style>.cls-1{fill:none;}.cls-2{clip-path:url(#clip-path);}.cls-3{fill:#181a1b;}.cls-4{fill:#ff6c37;}.cls-5{fill:#eee;}</style><clipPath id="clip-path" transform="translate(-0.05 0.05)"><rect class="cls-1" x="0.05" y="-0.05" width="50" height="50"/></clipPath></defs><title>postman-icon</title><g id="Background"><g class="cls-2"><path class="cls-3" d="M38.34,0H11.77A11.72,11.72,0,0,0,.05,11.66V38.23A11.72,11.72,0,0,0,11.77,50H38.34A11.72,11.72,0,0,0,50.05,38.23V11.66A11.71,11.71,0,0,0,38.34,0Z" transform="translate(-0.05 0.05)"/></g></g><g id="Postman"><rect class="cls-4" x="8.3" y="7.53" width="35" height="35" rx="8.2"/><path class="cls-5" d="M31.47,19.59,24.56,26.5l-1.95-1.95C29.41,17.75,30.08,18.34,31.47,19.59Z" transform="translate(-0.05 0.05)"/><path class="cls-4" d="M24.56,26.66a.12.12,0,0,1-.11-.05l-2-1.95a.17.17,0,0,1,0-.23c6.91-6.91,7.63-6.25,9.09-4.94a.14.14,0,0,1,.05.11.17.17,0,0,1-.05.12l-6.91,6.89A.1.1,0,0,1,24.56,26.66Zm-1.72-2.11,1.72,1.72,6.67-6.67C30,18.52,29.2,18.2,22.84,24.55Z" transform="translate(-0.05 0.05)"/><path class="cls-5" d="M26.54,28.48,24.66,26.6l6.91-6.91C33.42,21.55,30.65,24.58,26.54,28.48Z" transform="translate(-0.05 0.05)"/><path class="cls-4" d="M26.54,28.64a.12.12,0,0,1-.11-.05l-1.88-1.88s0-.06,0-.11a.17.17,0,0,1,0-.12l6.91-6.91a.17.17,0,0,1,.23,0,2,2,0,0,1,.64,1.52c0,1.82-2.1,4.13-5.67,7.5A.18.18,0,0,1,26.54,28.64Zm-1.65-2,1.65,1.65C29.29,25.63,32,22.94,32,21.09a1.7,1.7,0,0,0-.43-1.17Z" transform="translate(-0.05 0.05)"/><path class="cls-5" d="M22.65,24.6,24,26a.07.07,0,0,1,0,.1h0l-2.89.63a.3.3,0,0,1-.31-.23.28.28,0,0,1,.07-.22l1.67-1.67S22.63,24.57,22.65,24.6Z" transform="translate(-0.05 0.05)"/><path class="cls-4" d="M21.07,26.89a.43.43,0,0,1-.42-.44.44.44,0,0,1,.13-.31l1.67-1.67a.26.26,0,0,1,.33,0l1.39,1.39a.22.22,0,0,1,0,.33.23.23,0,0,1-.12.06l-2.88.62Zm1.53-2.11L21,26.38s0,.08,0,.13a.08.08,0,0,0,.11,0l2.7-.59Z" transform="translate(-0.05 0.05)"/><path class="cls-5" d="M35.12,15.76A2.65,2.65,0,1,0,34.67,20L32.8,18.08Z" transform="translate(-0.05 0.05)"/><path class="cls-4" d="M33.29,20.49a2.82,2.82,0,1,1,2-4.85.17.17,0,0,1,0,.12.14.14,0,0,1,0,.11L33,18.08l1.73,1.74a.15.15,0,0,1,0,.23l0,0A2.77,2.77,0,0,1,33.29,20.49Zm0-5.29a2.48,2.48,0,1,0,0,5,2.33,2.33,0,0,0,1.09-.26l-1.72-1.7a.17.17,0,0,1,0-.12.14.14,0,0,1,0-.11l2.2-2.2A2.46,2.46,0,0,0,33.29,15.2Z" transform="translate(-0.05 0.05)"/><path class="cls-5" d="M35.17,15.81l0,0L32.8,18.08l1.85,1.85a2.76,2.76,0,0,0,.51-.39A2.63,2.63,0,0,0,35.17,15.81Z" transform="translate(-0.05 0.05)"/><path class="cls-4" d="M34.67,20.11a.13.13,0,0,1-.12-.05L32.68,18.2a.17.17,0,0,1,0-.12.14.14,0,0,1,0-.11L35,15.64a.17.17,0,0,1,.23,0l0,0a2.84,2.84,0,0,1,0,4,2.49,2.49,0,0,1-.54.43Zm-1.64-2,1.65,1.66a2.73,2.73,0,0,0,.36-.3A2.49,2.49,0,0,0,35.12,16Z" transform="translate(-0.05 0.05)"/><path class="cls-5" d="M31.75,19.88a1,1,0,0,0-1.42,0l-6.18,6.18,1,1,6.54-5.73a1,1,0,0,0,.1-1.43A.13.13,0,0,1,31.75,19.88Z" transform="translate(-0.05 0.05)"/><path class="cls-4" d="M25.17,27.25a.18.18,0,0,1-.12-.05l-1-1a.17.17,0,0,1,0-.23l6.18-6.17a1.17,1.17,0,0,1,1.65,1.65l-.05,0L25.27,27.2A.11.11,0,0,1,25.17,27.25Zm-.79-1.19.8.8,6.42-5.63a.85.85,0,0,0-1.09-1.3l-.07.05Z" transform="translate(-0.05 0.05)"/><path class="cls-5" d="M19.42,33.08a.14.14,0,0,0-.08.16l.28,1.18a.32.32,0,0,1-.22.41.33.33,0,0,1-.36-.1L17.24,33l5.88-5.88,2,0,1.38,1.38A30.47,30.47,0,0,1,19.42,33.08Z" transform="translate(-0.05 0.05)"/><path class="cls-4" d="M19.29,35a.43.43,0,0,1-.34-.15l-1.79-1.79a.14.14,0,0,1-.05-.11.18.18,0,0,1,.05-.12L23,27a.14.14,0,0,1,.11-.05l2,0a.17.17,0,0,1,.12,0l1.37,1.37a.19.19,0,0,1,0,.14.12.12,0,0,1-.06.11l-.12.1a33.08,33.08,0,0,1-7,4.5l.28,1.16a.51.51,0,0,1-.25.56A.56.56,0,0,1,19.29,35Zm-1.8-2,1.69,1.67a.15.15,0,0,0,.22.06.15.15,0,0,0,.07-.22l-.28-1.18a.3.3,0,0,1,.17-.35,33.75,33.75,0,0,0,7-4.45L25.1,27.27l-1.88,0Z" transform="translate(-0.05 0.05)"/><path class="cls-5" d="M15.85,34.36,17.26,33l2.1,2.1L16,34.82a.26.26,0,0,1-.23-.3A.18.18,0,0,1,15.85,34.36Z" transform="translate(-0.05 0.05)"/><path class="cls-4" d="M19.36,35.19,16,35a.42.42,0,0,1-.39-.47.36.36,0,0,1,.13-.26l1.41-1.41a.14.14,0,0,1,.22,0l2.1,2.09a.14.14,0,0,1,0,.18A.15.15,0,0,1,19.36,35.19Zm-2.1-2L16,34.47a.09.09,0,0,0,0,.15.06.06,0,0,0,.06,0l2.9.2Z" transform="translate(-0.05 0.05)"/><path class="cls-4" d="M22.55,27.82a.17.17,0,0,1-.17-.16.14.14,0,0,1,.05-.11L24,26a.15.15,0,0,1,.23,0l1,1a.15.15,0,0,1,0,.16.18.18,0,0,1-.13.12l-2.62.55Zm1.59-1.52-1.08,1.08L24.82,27Z" transform="translate(-0.05 0.05)"/><path class="cls-5" d="M25.15,27.1l-1.8.4a.24.24,0,0,1-.29-.18.24.24,0,0,1,.06-.23l1-1Z" transform="translate(-0.05 0.05)"/><path class="cls-4" d="M23.32,27.66a.41.41,0,0,1-.41-.41A.49.49,0,0,1,23,27l1-1a.15.15,0,0,1,.23,0l1,1a.15.15,0,0,1,0,.16.18.18,0,0,1-.13.12l-1.8.39Zm.82-1.36-.89.89a.06.06,0,0,0,0,.09s.05,0,.09,0L24.84,27Z" transform="translate(-0.05 0.05)"/><path class="cls-4" d="M35.19,17.38a.2.2,0,0,0-.25-.12.21.21,0,0,0-.11.25s0,0,0,0a.63.63,0,0,1-.07.62.19.19,0,0,0,0,.26.18.18,0,0,0,.26,0A1,1,0,0,0,35.19,17.38Z" transform="translate(-0.05 0.05)"/></g></svg>