<svg xmlns="http://www.w3.org/2000/svg" xmlns:xlink="http://www.w3.org/1999/xlink" viewBox="0 0 50 50"><defs><style>.cls-1{fill:none;}.cls-2{clip-path:url(#clip-path);}.cls-3{fill:#181a1b;}.cls-4{fill:url(#Degradado_sin_nombre_3);}.cls-5{fill:url(#Degradado_sin_nombre_4);}</style><clipPath id="clip-path" transform="translate(-0.05 0.05)"><rect class="cls-1" x="0.05" y="-0.05" width="50" height="50"/></clipPath><linearGradient id="Degradado_sin_nombre_3" x1="364.98" y1="-1604.77" x2="462.77" y2="-1701.59" gradientTransform="matrix(0.19, 0, 0, -0.19, -58.75, -290.88)" gradientUnits="userSpaceOnUse"><stop offset="0" stop-color="#387eb8"/><stop offset="1" stop-color="#366994"/></linearGradient><linearGradient id="Degradado_sin_nombre_4" x1="425.04" y1="-1666.93" x2="530.06" y2="-1766.2" gradientTransform="matrix(0.19, 0, 0, -0.19, -58.75, -290.88)" gradientUnits="userSpaceOnUse"><stop offset="0" stop-color="#ffe052"/><stop offset="1" stop-color="#ffc331"/></linearGradient></defs><title>python-icon</title><g id="Background"><g class="cls-2"><path class="cls-3" d="M38.34,0H11.77A11.72,11.72,0,0,0,.05,11.66V38.23A11.72,11.72,0,0,0,11.77,50H38.34A11.72,11.72,0,0,0,50.05,38.23V11.66A11.71,11.71,0,0,0,38.34,0Z" transform="translate(-0.05 0.05)"/></g></g><g id="Python"><path class="cls-4" d="M24.61,6.6c-9.4,0-8.81,4.07-8.81,4.07v4.22h9v1.27H12.25s-6-.68-6,8.79,5.25,9.14,5.25,9.14h3.13V29.7s-.17-5.25,5.16-5.25h8.89s5,.08,5-4.83V11.51S34.42,6.6,24.61,6.6ZM19.66,9.43a1.62,1.62,0,1,1-1.61,1.62A1.61,1.61,0,0,1,19.66,9.43Z" transform="translate(-0.05 0.05)"/><path class="cls-5" d="M24.87,43.4c9.4,0,8.81-4.07,8.81-4.07V35.11h-9V33.84H37.23s6,.69,6-8.79S38,15.91,38,15.91H34.86V20.3s.17,5.25-5.16,5.25H20.81s-5-.08-5,4.83v8.11S15.06,43.4,24.87,43.4Zm4.94-2.83A1.62,1.62,0,1,1,31.43,39,1.61,1.61,0,0,1,29.81,40.57Z" transform="translate(-0.05 0.05)"/></g></svg>