<svg xmlns="http://www.w3.org/2000/svg" xmlns:xlink="http://www.w3.org/1999/xlink" viewBox="0 0 50 50"><defs><style>.cls-1{fill:none;}.cls-2{clip-path:url(#clip-path);}.cls-3{fill:#181a1b;}.cls-4{fill:#01d2f8;}</style><clipPath id="clip-path" transform="translate(-0.05 0.05)"><rect class="cls-1" x="0.05" y="-0.05" width="50" height="50"/></clipPath></defs><title>react-icon</title><g id="Background"><g class="cls-2"><path class="cls-3" d="M38.34,0H11.77A11.72,11.72,0,0,0,.05,11.66V38.23A11.72,11.72,0,0,0,11.77,50H38.34A11.72,11.72,0,0,0,50.05,38.23V11.66A11.71,11.71,0,0,0,38.34,0Z" transform="translate(-0.05 0.05)"/></g></g><g id="React"><path class="cls-4" d="M24.87,21.39A3.61,3.61,0,1,0,28.48,25,3.61,3.61,0,0,0,24.87,21.39ZM14.77,32.17,14,32c-5.93-1.5-9.33-4-9.33-7S8,19.51,14,18l.8-.2.22.78a39.72,39.72,0,0,0,2.3,6l.17.36-.17.35a39.72,39.72,0,0,0-2.3,6l-.22.78ZM13.6,19.86C9.09,21.12,6.33,23.06,6.33,25s2.76,3.87,7.27,5.14a41.71,41.71,0,0,1,2-5.14A41,41,0,0,1,13.6,19.86ZM35,32.17l-.22-.79a39.61,39.61,0,0,0-2.3-6L32.28,25l.17-.36a39.21,39.21,0,0,0,2.3-6l.22-.79.8.2c5.93,1.5,9.33,4,9.33,7s-3.4,5.48-9.33,7ZM34.14,25a43.35,43.35,0,0,1,2,5.14c4.51-1.27,7.27-3.21,7.27-5.14s-2.77-3.86-7.27-5.13a41,41,0,0,1-2,5.13ZM13.59,19.85l-.22-.79C11.7,13.19,12.21,9,14.75,7.5s6.52.27,10.72,4.58l.58.59-.58.59a39.92,39.92,0,0,0-4.08,5l-.23.33-.39,0a39.27,39.27,0,0,0-6.38,1l-.8.2Zm3.2-11.18A2.41,2.41,0,0,0,15.6,9c-1.68,1-2,4.33-.82,8.86A42,42,0,0,1,20.23,17a42.14,42.14,0,0,1,3.46-4.29c-2.63-2.56-5.12-4-6.9-4ZM33,43h0c-2.4,0-5.48-1.81-8.69-5.1l-.57-.58.57-.59a40.1,40.1,0,0,0,4.09-5l.22-.32.4,0a40.39,40.39,0,0,0,6.38-1l.8-.2.22.79C38,36.8,37.53,41,35,42.48A4,4,0,0,1,33,43Zm-6.9-5.7c2.63,2.56,5.12,4,6.9,4h0a2.31,2.31,0,0,0,1.19-.3c1.68-1,2-4.32.82-8.85a42,42,0,0,1-5.45.84A42.14,42.14,0,0,1,26.05,37.3Zm10.1-17.45-.8-.2a39.27,39.27,0,0,0-6.38-1l-.4,0-.22-.33a40,40,0,0,0-4.09-5l-.57-.59.57-.59c4.21-4.31,8.22-6,10.72-4.58S38,13.19,36.37,19.06l-.22.79ZM29.51,17a42.07,42.07,0,0,1,5.45.84c1.15-4.53.86-7.89-.82-8.86s-4.8.52-8.09,3.73A42.14,42.14,0,0,1,29.51,17ZM16.79,43a4.05,4.05,0,0,1-2-.52C12.21,41,11.7,36.8,13.37,30.93l.22-.79.79.2a41,41,0,0,0,6.39,1l.39,0,.23.32a40,40,0,0,0,4.08,5l.57.59-.57.58c-3.2,3.29-6.28,5.1-8.68,5.1Zm-2-10.83c-1.16,4.53-.86,7.89.82,8.85s4.79-.51,8.09-3.72A43.26,43.26,0,0,1,20.23,33a42,42,0,0,1-5.45-.84Zm10.09,1c-1.39,0-2.81-.06-4.24-.17l-.4,0L20,32.69c-.8-1.16-1.56-2.36-2.27-3.58s-1.36-2.48-2-3.76L15.59,25l.17-.36c.61-1.27,1.26-2.53,2-3.75S19.19,18.47,20,17.3l.23-.32.4,0a50,50,0,0,1,8.48,0l.4,0,.22.32A51,51,0,0,1,34,24.63l.17.36-.17.36a50.56,50.56,0,0,1-4.25,7.34l-.22.32-.4,0c-1.42.11-2.85.17-4.24.17Zm-3.7-1.82a50.91,50.91,0,0,0,7.41,0A49.14,49.14,0,0,0,32.28,25a48.61,48.61,0,0,0-3.71-6.4,48.11,48.11,0,0,0-7.4,0A48.61,48.61,0,0,0,17.46,25a48.09,48.09,0,0,0,3.71,6.41Z" transform="translate(-0.05 0.05)"/></g></svg>