<svg xmlns="http://www.w3.org/2000/svg" xmlns:xlink="http://www.w3.org/1999/xlink" viewBox="0 0 50 50"><defs><style>.cls-1{fill:none;}.cls-2{clip-path:url(#clip-path);}.cls-3{fill:#181a1b;}.cls-4{clip-path:url(#clip-path-2);}.cls-5{fill:#eaeaea;}</style><clipPath id="clip-path" transform="translate(-0.05 0.05)"><rect class="cls-1" x="0.05" y="-0.05" width="50" height="50"/></clipPath><clipPath id="clip-path-2" transform="translate(-0.05 0.05)"><rect class="cls-1" x="6.5" y="6.5" width="37" height="37"/></clipPath></defs><title>vercel-icon</title><g id="Background"><g class="cls-2"><path class="cls-3" d="M38.34,0H11.77A11.72,11.72,0,0,0,.05,11.66V38.23A11.72,11.72,0,0,0,11.77,50H38.34A11.72,11.72,0,0,0,50.05,38.23V11.66A11.71,11.71,0,0,0,38.34,0Z" transform="translate(-0.05 0.05)"/></g></g><g id="Vercel"><g class="cls-4"><path class="cls-5" d="M34.83,6.5H15.17A8.67,8.67,0,0,0,6.5,15.17V34.83a8.67,8.67,0,0,0,8.67,8.67H34.83a8.67,8.67,0,0,0,8.67-8.67V15.17A8.67,8.67,0,0,0,34.83,6.5Z" transform="translate(-0.05 0.05)"/></g><path d="M24.8,22.94A2.07,2.07,0,0,0,22.58,25a2.17,2.17,0,0,0,2.34,2.1,2.43,2.43,0,0,0,1.89-.83l-.9-.51a1.34,1.34,0,0,1-1,.4,1.24,1.24,0,0,1-1.21-.75H27A2.85,2.85,0,0,0,27,25,2.07,2.07,0,0,0,24.8,22.94Zm-1.1,1.69a1.18,1.18,0,0,1,2.2,0Zm13.67-1.69A2.07,2.07,0,0,0,35.15,25a2.17,2.17,0,0,0,2.34,2.1,2.39,2.39,0,0,0,1.88-.83l-.89-.51a1.34,1.34,0,0,1-1,.4,1.27,1.27,0,0,1-1.22-.75h3.28a2.85,2.85,0,0,0,0-.41,2.07,2.07,0,0,0-2.22-2.1Zm-1.1,1.69a1.18,1.18,0,0,1,2.2,0ZM31.71,25a1.1,1.1,0,0,0,1.17,1.17,1.08,1.08,0,0,0,1-.58l.9.52a2.16,2.16,0,0,1-1.92,1,2.1,2.1,0,1,1,0-4.2,2.16,2.16,0,0,1,1.92,1l-.9.51a1.09,1.09,0,0,0-1-.57A1.1,1.1,0,0,0,31.71,25Zm9.63-3.39V27H40.29V21.65Zm-28.69-.58L17,28.54H8.34Zm10.78.58L20.2,27.26,17,21.65h1.22l2,3.5,2-3.5Zm6.88,1.4v1.13a1.5,1.5,0,0,0-.37-.05,1.11,1.11,0,0,0-1.17,1.16V27H27.72v-4h1.05v1.08C28.77,23.53,29.46,23.05,30.31,23.05Z" transform="translate(-0.05 0.05)"/></g></svg>